<svg xmlns="http://www.w3.org/2000/svg" width="512" height="512" viewBox="0 0 512 512" preserveAspectRatio="xMidYMid meet">
<g transform="translate(0.000000,512.000000) scale(0.100000,-0.100000)"
fill="currentColor" stroke="none">
<path d="M139 4981 l-29 -29 0 -2392 0 -2392 29 -29 29 -29 472 0 472 0 29 29
c27 27 29 35 29 105 l0 76 1390 0 1390 0 0 -76 c0 -70 2 -78 29 -105 l29 -29
472 0 472 0 29 29 29 29 0 2392 0 2392 -29 29 -29 29 -2392 0 -2392 0 -29 -29z
m4661 -2421 l0 -2240 -320 0 -320 0 0 1770 c0 1964 5 1816 -65 1846 -51 21
-3019 21 -3070 0 -70 -30 -65 118 -65 -1846 l0 -1770 -320 0 -320 0 0 2240 0
2240 2240 0 2240 0 0 -2240z m-2350 -425 l0 -1595 -640 0 -640 0 0 1595 0
1595 640 0 640 0 0 -1595z m1500 0 l0 -1595 -640 0 -640 0 0 1595 0 1595 640
0 640 0 0 -1595z"/>
<path d="M1875 4574 c-37 -19 -228 -207 -257 -252 -38 -62 -3 -145 68 -158 50
-9 73 3 156 84 l78 75 79 -75 c85 -82 106 -93 155 -84 71 13 106 96 68 158
-30 48 -233 245 -266 257 -36 14 -45 14 -81 -5z"/>
<path d="M2943 4575 c-33 -14 -63 -59 -63 -95 0 -38 27 -74 147 -192 120 -118
149 -136 200 -123 31 7 256 224 279 267 19 37 18 67 -5 104 -24 40 -76 59
-117 44 -16 -6 -64 -46 -106 -88 l-78 -77 -77 77 c-67 66 -115 99 -141 98 -4
-1 -21 -7 -39 -15z"/>
<path d="M4424 2861 c-89 -54 -47 -191 57 -191 74 0 124 75 95 143 -15 38 -59
67 -98 67 -13 0 -37 -9 -54 -19z"/>
<path d="M4417 2430 c-38 -30 -52 -80 -33 -123 15 -37 59 -67 96 -67 37 0 81
30 96 67 29 68 -21 143 -96 143 -22 0 -48 -8 -63 -20z"/>
</g>
</svg>
