<?xml version="1.0" standalone="no"?>
<!DOCTYPE svg PUBLIC "-//W3C//DTD SVG 20010904//EN"
 "http://www.w3.org/TR/2001/REC-SVG-20010904/DTD/svg10.dtd">
<svg version="1.0" xmlns="http://www.w3.org/2000/svg"
 width="512.000000pt" height="512.000000pt" viewBox="0 0 512.000000 512.000000"
 preserveAspectRatio="xMidYMid meet">

<g transform="translate(0.000000,512.000000) scale(0.100000,-0.100000)"
fill="currentColor" stroke="none">
<path d="M1465 4851 c-759 -147 -1390 -271 -1403 -275 -13 -4 -32 -22 -43 -39
-19 -31 -19 -74 -19 -1974 0 -1446 3 -1949 12 -1967 6 -14 21 -32 33 -40 29
-19 2822 -556 2857 -549 14 3 39 18 55 35 l28 29 3 2466 c1 1714 -1 2477 -8
2505 -13 45 -58 79 -105 77 -16 -1 -651 -121 -1410 -268z m78 -1246 c199 -60
381 -243 483 -487 41 -97 78 -232 93 -342 14 -100 14 -332 0 -432 -66 -474
-347 -819 -692 -850 -97 -8 -199 14 -307 67 -69 34 -101 59 -170 129 -166 168
-267 400 -301 691 -14 126 -7 351 16 467 93 478 402 798 750 777 44 -3 102
-12 128 -20z"/>
<path d="M1281 3394 c-132 -48 -237 -158 -321 -336 -138 -294 -136 -709 4
-1003 75 -157 158 -251 276 -312 48 -25 66 -28 145 -28 79 0 97 4 148 28 253
125 420 536 378 936 -18 179 -68 341 -142 469 -50 85 -165 197 -235 229 -74
34 -187 41 -253 17z"/>
<path d="M3258 3824 c-59 -31 -58 -24 -58 -601 1 -395 4 -533 13 -550 21 -37
359 -312 392 -318 17 -4 41 -2 55 3 41 16 1424 1060 1442 1090 24 37 26 287 3
332 -32 63 11 60 -947 60 -753 -1 -877 -3 -900 -16z"/>
<path d="M4960 3057 c-14 -8 -277 -205 -585 -438 -308 -233 -586 -437 -619
-453 -48 -25 -71 -30 -130 -31 -88 0 -145 21 -223 81 -32 25 -68 47 -81 51
-36 9 -83 -9 -106 -40 -20 -28 -21 -40 -24 -437 -3 -452 -1 -464 57 -494 27
-15 125 -16 916 -14 l885 3 27 28 28 27 3 830 2 829 -27 31 c-33 36 -86 48
-123 27z"/>
</g>
</svg>
